# xmcd
#
# Track frame offsets: 
#        150
#        22798
#        43093
#        59251
#        84441
#        104024
#        127346
#        143360
#        166573
#        187949
#        207546
#        239232
#
# Disc length: 3707 seconds
#
# Revision: 0
# Processed by: cddbd v1.5.2PL0 Copyright (c) Steve Scherf et al.
# Submitted via: ExactAudioCopy v1.0b4
#
DISCID=a30e790c
DTITLE=Victor Wainwright and The Train - Victor Wainwright and The Train
DYEAR=2018
DGENRE=Blues
TTITLE0=Healing
TTITLE1=Wiltshire Grave
TTITLE2=Train
TTITLE3=Dull Your Shine
TTITLE4=Money
TTITLE5=Thank You Lucille
TTITLE6=Boogie Depression
TTITLE7=Everything I Need
TTITLE8=Righteous
TTITLE9=I'll Start Tomorrow
TTITLE10=Sunshine
TTITLE11=That's Love To Me
EXTD=
EXTT0=
EXTT1=
EXTT2=
EXTT3=
EXTT4=
EXTT5=
EXTT6=
EXTT7=
EXTT8=
EXTT9=
EXTT10=
EXTT11=
PLAYORDER=
